#!OML:ASF F:\VICON\USERDATA\INSTALL\rory3\rory3.ASF
:FULLY-SPECIFIED
:DEGREES
43
root -1.59069 16.3276 -28.235 1.74635 2.95472 2.2416
lowerback 13.0044 -0.946691 -7.65347
upperback -4.28839 -2.41865 1.9946
thorax -11.679 -0.484584 7.09645
lowerneck -9.25702 -5.57719 -3.06591
upperneck 18.0682 -7.76052 3.03866
head 7.30345 -3.66984 0.780238
rclavicle 1.13307e-014 -1.78906e-014
rhumerus -43.9645 -6.43707 -81.0067
rradius 21.4946
rwrist 13.6811
rhand -11.5072 20.7474
rfingers 7.12502
rthumb 14.5318 -8.72361
lclavicle 1.13307e-014 -1.78906e-014
lhumerus -36.152 7.33885 84.1877
lradius 22.4738
lwrist -2.64887
lhand -5.63266 18.4004
lfingers 7.12502
lthumb 20.1854 47.3717
rfemur -25.8275 16.3602 16.9453
rtibia 35.9637
rfoot -11.4434 -10.2242
rtoes 31.7919
lfemur 2.17502 -5.34567 -22.4218
ltibia 39.1436
lfoot -5.76386 -0.352796
ltoes -16.3994
44
root -1.62568 16.3258 -28.1508 1.72374 2.30989 2.11561
lowerback 13.1549 -0.651236 -7.79516
upperback -4.36457 -2.04968 2.09988
thorax -11.9186 -0.276747 7.22815
lowerneck -9.42097 -5.64488 -3.19891
upperneck 18.2878 -7.83745 3.04032
head 7.41247 -3.71051 0.786909
rclavicle 3.04389e-015 -1.98785e-015
rhumerus -43.9017 -6.25312 -80.8837
rradius 21.7946
rwrist 13.6925
rhand -11.3699 21.2189
rfingers 7.12502
rthumb 14.6642 -8.24259
lclavicle 3.04389e-015 -1.98785e-015
lhumerus -36.3478 7.72955 84.1468
lradius 22.7846
lwrist -2.59667
lhand -5.89181 18.5193
lfingers 7.12502
lthumb 19.9364 47.5167
rfemur -25.5465 16.6705 17.3297
rtibia 35.8022
rfoot -11.2997 -10.0085
rtoes 31.9895
lfemur 1.06643 -4.14228 -21.9293
ltibia 41.2794
lfoot -4.33569 -0.828179
ltoes -15.4589
45
root -1.66775 16.3334 -28.0406 1.22726 3.5792 1.98458
lowerback 13.6999 -1.00951 -7.75309
upperback -4.37768 -2.55533 2.22004
thorax -12.1634 -0.497584 7.4819
lowerneck -9.43208 -5.63236 -3.40532
upperneck 18.6474 -7.79745 3.02247
head 7.53877 -3.70332 0.813511
rclavicle -9.25591e-015 -2.54444e-014
rhumerus -44.0884 -5.85444 -80.868
rradius 22.1548
rwrist 13.6571
rhand -11.4629 21.6751
rfingers 7.12502
rthumb 14.5745 -7.79282
lclavicle -9.25591e-015 -2.54444e-014
lhumerus -36.5744 7.9899 84.1287
lradius 23.0597
lwrist -1.92094
lhand -5.65352 19.7073
lfingers 7.12502
lthumb 20.1654 48.6807
rfemur -24.0886 16.486 17.9676
rtibia 35.6305
rfoot -12.4188 -10.6328
rtoes 33.5494
lfemur 0.249944 -4.60299 -21.2716
ltibia 43.432
lfoot -2.13458 -1.39258
ltoes -14.1409
46
root -1.69915 16.3348 -27.9764 1.64285 2.29373 1.79003
lowerback 13.6406 -0.487104 -7.72954
upperback -4.65649 -1.85104 2.2268
thorax -12.5848 -0.132179 7.32587
lowerneck -9.36591 -5.70949 -3.39815
upperneck 18.7666 -7.91622 3.04096
head 7.57077 -3.75758 0.807061
rclavicle -6.4605e-016 -2.06736e-014
rhumerus -44.0549 -5.95666 -80.8902
rradius 22.305
rwrist 13.6405
rhand -11.5735 21.3524
rfingers 7.12502
rthumb 14.468 -8.12322
lclavicle -6.4605e-016 -2.06736e-014
lhumerus -36.667 8.03777 83.9602
lradius 23.2142
lwrist -1.59902
lhand -5.36837 19.592
lfingers 7.12502
lthumb 20.4394 48.5363
rfemur -24.5164 16.7674 18.2525
rtibia 35.4634
rfoot -11.767 -9.94673
rtoes 32.758
lfemur -1.60158 -2.93192 -20.7261
ltibia 45.7285
lfoot 0.631011 -1.37947
ltoes -10.1316
47
root -1.74374 16.3481 -27.8732 1.63557 2.80426 1.74743
lowerback 13.4588 -0.580307 -7.77402
upperback -4.61079 -1.97195 2.20066
thorax -12.3988 -0.199781 7.33828
lowerneck -9.36306 -5.73972 -3.35712
upperneck 18.6908 -7.98341 3.15193
head 7.55072 -3.77746 0.830663
rclavicle -7.55382e-015 4.37326e-015
rhumerus -43.6824 -5.9524 -81.1148
rradius 22.4798
rwrist 13.1832
rhand -11.6128 20.7432
rfingers 7.12502
rthumb 14.4301 -8.7351
lclavicle -7.55382e-015 4.37326e-015
lhumerus -36.5796 8.17647 83.761
lradius 23.3473
lwrist -1.6049
lhand -5.17896 19.4495
lfingers 7.12502
lthumb 20.6215 48.3741
rfemur -23.769 16.7444 18.6421
rtibia 35.2407
rfoot -12.4232 -10.2224
rtoes 32.979
lfemur -2.9775 -2.87558 -20.2252
ltibia 47.9633
lfoot 3.11604 -1.54074
ltoes -6.19288
48
root -1.76803 16.3594 -27.7878 1.62638 2.81767 1.48885
lowerback 13.3559 -0.562866 -7.46768
upperback -4.58286 -1.87557 2.25812
thorax -12.3248 -0.181097 7.19864
lowerneck -9.41354 -5.70654 -3.44209
upperneck 18.6658 -7.94469 3.27584
head 7.55899 -3.75294 0.886992
rclavicle -4.82053e-015 1.90833e-014
rhumerus -43.2187 -5.69825 -81.3244
rradius 22.5936
rwrist 12.5571
rhand -11.5473 20.5226
rfingers 7.12502
rthumb 14.4932 -8.95122
lclavicle -4.82053e-015 1.90833e-014
lhumerus -36.4656 8.14294 83.8179
lradius 23.4628
lwrist -1.3475
lhand -5.24114 19.971
lfingers 7.12502
lthumb 20.5617 48.9021
rfemur -23.2631 16.5613 19.1649
rtibia 34.9707
rfoot -12.4027 -10.1589
rtoes 32.5654
lfemur -4.46595 -2.54446 -19.6977
ltibia 50.3
lfoot 4.66086 -1.56286
ltoes -6.96689
49
root -1.79905 16.3654 -27.7081 1.60611 2.64835 1.26827
lowerback 13.5314 -0.463192 -7.4657
upperback -4.77496 -1.74181 2.41437
thorax -12.6755 -0.0830991 7.36103
lowerneck -8.88653 -5.68646 -3.75938
upperneck 18.6745 -7.90607 3.4053
head 7.48529 -3.75308 0.99967
rclavicle -5.81445e-015 1.15295e-014
rhumerus -43.368 -5.23668 -81.333
rradius 22.9719
rwrist 12.2571
rhand -11.2115 20.2589
rfingers 7.12502
rthumb 14.8167 -9.19136
lclavicle -5.81445e-015 1.15295e-014
lhumerus -36.8566 8.32461 83.8126
lradius 23.5454
lwrist -1.32192
lhand -5.65627 19.658
lfingers 7.12502
lthumb 20.1628 48.6316
rfemur -22.7668 16.7282 19.6409
rtibia 34.6216
rfoot -12.4093 -10.2319
rtoes 32.3426
lfemur -5.95044 -1.96841 -19.1584
ltibia 52.5696
lfoot 5.83319 -1.80308
ltoes -10.6442
